<?xml version="1.0" encoding="UTF-8"?>
<svg width="20px" height="19px" viewBox="0 0 20 19" version="1.1" xmlns="http://www.w3.org/2000/svg" xmlns:xlink="http://www.w3.org/1999/xlink">
    <title>np_basket_1234547_000000</title>
    <g id="Designs-V2" stroke="none" stroke-width="1" fill="none" fill-rule="evenodd">
        <g id="Collection" transform="translate(-1179.000000, -574.000000)" fill="#29245F" fill-rule="nonzero" stroke="#29245F" stroke-width="0.45">
            <g id="Group-8" transform="translate(1173.000000, 567.000000)">
                <g id="np_basket_1234547_000000" transform="translate(7.000000, 8.000000)">
                    <path d="M18.7575632,4.69031837 L16.1645581,4.69031837 L12.6191353,0.000915840313 L11.8708473,0.566035739 L14.9895345,4.68567586 L4.00414014,4.68476002 L7.12282729,0.565119899 L6.37453932,0 L2.82911654,4.68940253 L0,4.69031837 L0,8.32460533 L1.45812282,8.32460533 L2.8832557,17 L15.8733696,17 L17.2985025,8.32460533 L18.7575632,8.32460533 L18.7575632,4.69031837 Z M15.0766167,16.0621195 L3.68089962,16.0621195 L2.40962604,8.32460533 L16.3495785,8.32460533 L15.0766167,16.0621195 Z M17.8196827,7.38672482 L0.937833611,7.38672482 L0.937833611,5.62819887 L17.8196827,5.62819887 L17.8196827,7.38672482 Z" id="Shape"></path>
                    <polygon id="Path" points="6.79958677 10.493454 11.9579295 10.493454 11.9579295 11.4313345 6.79958677 11.4313345"></polygon>
                    <polygon id="Path" points="6.79958677 12.8381553 11.9579295 12.8381553 11.9579295 13.7760358 6.79958677 13.7760358"></polygon>
                </g>
            </g>
        </g>
    </g>
</svg>