<?xml version="1.0" encoding="UTF-8"?>
<svg width="44px" height="34px" viewBox="0 0 44 34" version="1.1" xmlns="http://www.w3.org/2000/svg" xmlns:xlink="http://www.w3.org/1999/xlink">
    <title>envelope</title>
    <g id="Designs-V2" stroke="none" stroke-width="1" fill="none" fill-rule="evenodd">
        <g id="Contact" transform="translate(-778.000000, -1795.000000)" fill="#EF9B35" fill-rule="nonzero">
            <g id="Group-4" transform="translate(225.000000, 1757.000000)">
                <g id="envelope" transform="translate(553.000000, 38.000000)">
                    <path d="M37.9584722,0.785 L5.79152778,0.785 C2.59763194,0.785 0,3.38268056 0,6.57652778 L0,27.2552083 C0,30.4491042 2.59768056,33.0467361 5.79152778,33.0467361 L37.9584722,33.0467361 C41.1504722,33.0467361 43.75,30.4490556 43.75,27.2552083 L43.75,6.57652778 C43.75,3.38263194 41.1504236,0.785 37.9584722,0.785 Z M5.79152778,3.17569444 L37.9584722,3.17569444 C38.4104049,3.17569444 38.8528194,3.26684028 39.2648958,3.44153889 L24.3947569,17.4877194 C23.7225625,18.1219486 22.8281667,18.4694208 21.8730556,18.4694208 C20.9179444,18.4694208 20.0235486,18.1200285 19.35325,17.4877194 L4.48505556,3.44153889 C4.8971125,3.26684028 5.3414375,3.17569444 5.79147917,3.17569444 L5.79152778,3.17569444 Z M41.3595389,27.2552083 C41.3595389,29.1294097 39.8345208,30.6541944 37.9584236,30.6541944 L5.79147917,30.6560932 C3.91727778,30.6560932 2.39249306,29.1313085 2.39249306,27.2571071 L2.39249306,6.57648208 C2.39249306,6.05430153 2.51212014,5.54728764 2.73998472,5.08397514 L17.7146375,19.2249474 C18.8254986,20.2750446 20.3027903,20.8541974 21.8750681,20.8541974 C23.4473458,20.8541974 24.9246375,20.2769404 26.0373944,19.2249474 L41.0120472,5.08397514 C41.2399118,5.54729736 41.3595389,6.05619736 41.3595389,6.57648208 L41.3595389,27.2552083 Z" id="Shape"></path>
                </g>
            </g>
        </g>
    </g>
</svg>