<?xml version="1.0" encoding="UTF-8"?>
<svg width="45px" height="45px" viewBox="0 0 45 45" version="1.1" xmlns="http://www.w3.org/2000/svg" xmlns:xlink="http://www.w3.org/1999/xlink">
    <title>np_fax_1430541_000000</title>
    <g id="Designs-V2" stroke="none" stroke-width="1" fill="none" fill-rule="evenodd">
        <g id="Contact" transform="translate(-1208.000000, -1789.000000)" fill="#EF9B35" fill-rule="nonzero">
            <g id="Group-4" transform="translate(225.000000, 1757.000000)">
                <g id="Group-2" transform="translate(860.000000, 32.000000)">
                    <g id="np_fax_1430541_000000" transform="translate(123.000000, 0.000000)">
                        <path d="M28.11105,25.0699855 L37.17945,25.0699855 C38.527695,25.0664342 39.619305,23.97483 39.622815,22.626585 L39.622815,19.73322 C39.6192996,18.38322 38.527695,17.29161 37.17945,17.289855 L28.11105,17.289855 C27.460665,17.2845815 26.834895,17.5412205 26.37432,18 C25.912035,18.458775 25.651845,19.081035 25.65009,19.73322 L25.65009,22.626585 C25.6518477,23.27697 25.9120035,23.900985 26.37432,24.35805 C26.83485,24.816825 27.460665,25.07346 28.11105,25.0699855 L28.11105,25.0699855 Z M27.9001125,19.7334 C27.9001125,19.626174 27.986247,19.5400395 28.093473,19.5400395 L37.179423,19.5400395 C37.230399,19.5400395 37.27962,19.5593756 37.3165335,19.5962895 C37.3516898,19.6314458 37.3727835,19.6806645 37.3727835,19.7334 L37.3727835,22.626765 C37.3727835,22.732236 37.286649,22.8201255 37.179423,22.8201255 L28.111023,22.8201255 C28.005552,22.8201255 27.9176625,22.732236 27.9176625,22.626765 L27.9001125,19.7334 Z" id="Shape"></path>
                        <path d="M40.5,0.224995663 L22.63005,0.224995663 C21.285315,0.2232423 19.99332,0.755865 19.04058,1.705095 C18.08784,2.65608 17.55171,3.94632 17.549955,5.29281 L17.549955,12.43836 L14.849955,12.43836 C12.577095,12.4401177 10.73493,14.282325 10.733175,16.55514 L10.733175,40.65804 C10.7349331,42.9309 12.57714,44.773065 14.849955,44.77482 L40.121955,44.77482 C42.53895,44.7730623 44.49717,42.81309 44.50068,40.396095 L44.50068,16.816995 C44.4971642,14.4 42.53895,12.440025 40.121955,12.43827 L38.51532,12.43827 L38.51532,7.69932 L43.57242,7.69932 C43.871247,7.69932 44.15778,7.581546 44.368695,7.3706085 C44.57961,7.159671 44.6974065,6.8731335 44.6974065,6.5743335 L44.6974065,4.4420985 C44.6956488,2.1218085 42.8200515,0.2373885 40.4997615,0.224995663 L40.5,0.224995663 Z M19.8,5.2929 C19.8017577,4.5423 20.1005865,3.825135 20.631465,3.296025 C21.16233,2.76867 21.88125,2.47338 22.630095,2.47512722 L36.756045,2.47512722 C36.434367,3.079845 36.265635,3.7566 36.265635,4.44213 L36.265635,12.43863 L19.8,12.43863 L19.8,5.2929 Z M20.830095,40.6584 C20.830095,41.688495 19.99512,42.52518 18.963315,42.52518 L14.867595,42.52518 C13.835745,42.52518 13.000815,41.68845 13.000815,40.6584 L13.000815,16.5555 C13.000815,16.05978 13.19769,15.58521 13.547475,15.23538 C13.897278,14.885577 14.371875,14.68872 14.867595,14.68872 L18.963315,14.68872 C19.459035,14.68872 19.933605,14.885595 20.283435,15.23538 C20.633238,15.585183 20.830095,16.05978 20.830095,16.5555 L20.830095,40.6584 Z M40.122045,14.68845 C41.296275,14.6902077 42.24726,15.642945 42.25077,16.817175 L42.25077,40.396275 C42.2472542,41.570505 41.296275,42.523245 40.122045,42.525 L22.644045,42.525 C22.9393575,41.94666 23.094045,41.30685 23.094045,40.65822 L23.094045,16.55532 C23.094045,15.90669 22.9393575,15.266835 22.644045,14.68845 L40.122045,14.68845 Z M42.45291,5.4495 L38.51541,5.4495 L38.51541,4.442265 C38.51541,3.354165 39.39606,2.473515 40.48416,2.473515 C41.57226,2.473515 42.45291,3.354165 42.45291,4.442265 L42.45291,5.4495 Z" id="Shape"></path>
                        <path d="M14.63895,8.703 C14.63895,8.404173 14.519421,8.119395 14.308479,7.906725 C14.0975415,7.6957875 13.811004,7.57801076 13.513959,7.57801076 C11.383479,7.5762558 9.340929,8.4217635 7.836309,9.9282285 C6.329844,11.4346935 5.484339,13.4772435 5.48609127,15.6058785 C5.48609127,16.2281385 5.988834,16.7308785 6.611094,16.7308785 C7.231599,16.7308785 7.736094,16.2281385 7.736094,15.6058785 C7.7325786,12.4189785 10.313064,9.8332785 13.500144,9.8278785 C13.8007305,9.8313939 14.090769,9.7153785 14.305239,9.5026815 C14.517936,9.291744 14.6392245,9.0034515 14.6392245,8.7028965 L14.63895,8.703 Z" id="Path"></path>
                        <path d="M1.427355,16.56045 C1.724427,16.56045 2.01096,16.440921 2.221875,16.229979 C2.43279,16.019037 2.552346,15.734259 2.552346,15.435459 C2.552346,12.570219 3.689631,9.824409 5.714631,7.797609 C7.739631,5.772609 10.486881,4.635324 13.352481,4.635324 C13.972986,4.635324 14.477481,4.130829 14.477481,3.510324 C14.477481,2.888064 13.972986,2.385324 13.352481,2.385324 C9.891351,2.385324 6.570981,3.759939 4.123881,6.206814 C1.677006,8.655444 0.302391,11.974014 0.302391,15.435414 C0.302391,16.055919 0.805131,16.56045 1.427391,16.56045 L1.427355,16.56045 Z" id="Path"></path>
                        <path d="M33.77295,28.872 C33.77295,30.3714 31.52295,30.3714 31.52295,28.872 C31.52295,27.3726 33.77295,27.3726 33.77295,28.872" id="Path"></path>
                        <path d="M29.259,28.872 C29.259,30.3714 27.009,30.3714 27.009,28.872 C27.009,27.3726 29.259,27.3726 29.259,28.872" id="Path"></path>
                        <path d="M38.2851,28.872 C38.2851,30.3714 36.0351,30.3714 36.0351,28.872 C36.0351,27.3726 38.2851,27.3726 38.2851,28.872" id="Path"></path>
                        <path d="M33.77295,33.4584 C33.77295,34.9578 31.52295,34.9578 31.52295,33.4584 C31.52295,31.957245 33.77295,31.957245 33.77295,33.4584" id="Path"></path>
                        <path d="M29.259,33.4584 C29.259,34.9578 27.009,34.9578 27.009,33.4584 C27.009,31.957245 29.259,31.957245 29.259,33.4584" id="Path"></path>
                        <path d="M38.2851,33.4584 C38.2851,34.9578 36.0351,34.9578 36.0351,33.4584 C36.0351,31.957245 38.2851,31.957245 38.2851,33.4584" id="Path"></path>
                        <path d="M33.77295,38.03895 C33.77295,39.53835 31.52295,39.53835 31.52295,38.03895 C31.52295,36.537795 33.77295,36.537795 33.77295,38.03895" id="Path"></path>
                        <path d="M29.259,38.03895 C29.259,39.53835 27.009,39.53835 27.009,38.03895 C27.009,36.537795 29.259,36.537795 29.259,38.03895" id="Path"></path>
                        <path d="M38.2851,38.03895 C38.2851,39.53835 36.0351,39.53835 36.0351,38.03895 C36.0351,36.537795 38.2851,36.537795 38.2851,38.03895" id="Path"></path>
                    </g>
                </g>
            </g>
        </g>
    </g>
</svg>