<?xml version="1.0" encoding="UTF-8"?>
<svg width="15px" height="13px" viewBox="0 0 15 13" version="1.1" xmlns="http://www.w3.org/2000/svg" xmlns:xlink="http://www.w3.org/1999/xlink">
    <title>np_heart_1888022_000000</title>
    <g id="Designs-V2" stroke="none" stroke-width="1" fill="none" fill-rule="evenodd">
        <g id="Collection" transform="translate(-1182.000000, -496.000000)" fill="#29245F" fill-rule="nonzero">
            <g id="Group-7" transform="translate(1173.000000, 486.000000)">
                <g id="np_heart_1888022_000000" transform="translate(9.000000, 10.000000)">
                    <path d="M4.18426667,0.00665166667 C3.157635,0.00665166667 2.12762333,0.409586667 1.36088333,1.21870667 C-0.17186,2.83694667 -0.17017,5.41575667 1.36088333,7.03490667 L6.7301,12.7224067 C6.89344717,12.895064 7.12111833,12.99324 7.35977667,12.99324 C7.59761167,12.99324 7.82526333,12.895064 7.98945333,12.7224067 C9.78202333,10.8307983 11.57962,8.93334 13.37232,7.04162333 C14.9050633,5.42338333 14.9050633,2.84370667 13.37232,1.22542333 C11.8395767,-0.39286 9.26497,-0.392816667 7.73227,1.22542333 L7.366645,1.61135 L7.00102,1.21864167 C6.234215,0.409521667 5.210985,0.00665166667 4.18435333,0.00665166667 L4.18426667,0.00665166667 Z M4.18426667,1.70620667 C4.741165,1.70620667 5.29468333,1.94488667 5.74155833,2.41713333 L6.74364167,3.46662333 C6.90698883,3.63674133 7.13297,3.73407667 7.36993833,3.73407667 C7.60606167,3.73407667 7.832045,3.63674567 7.996235,3.46662333 L8.98477667,2.41713333 C9.87852667,1.47344167 11.2190433,1.47344167 12.11301,2.41713333 C13.0069767,3.360825 13.00676,4.9062 12.11301,5.85 C10.530325,7.520695 8.94924333,9.19641667 7.36671,10.8671333 L2.62041,5.85 L2.62041,5.84322917 C1.72666,4.8978475 1.72666,3.36087917 2.62041,2.41729583 C3.067285,1.9450275 3.62756333,1.70636917 4.18448333,1.70636917 L4.18426667,1.70620667 Z" id="Shape"></path>
                </g>
            </g>
        </g>
    </g>
</svg>