<?xml version="1.0" encoding="UTF-8"?>
<svg width="43px" height="44px" viewBox="0 0 43 44" version="1.1" xmlns="http://www.w3.org/2000/svg" xmlns:xlink="http://www.w3.org/1999/xlink">
    <title>phone</title>
    <g id="Designs-V2" stroke="none" stroke-width="1" fill="none" fill-rule="evenodd">
        <g id="Contact" transform="translate(-349.000000, -1790.000000)" fill="#EF9B35" fill-rule="nonzero" stroke="#EF9B35" stroke-width="0.25">
            <g id="Group-4" transform="translate(225.000000, 1757.000000)">
                <g id="Group-2" transform="translate(0.000000, 34.000000)">
                    <g id="phone" transform="translate(125.000000, 0.000000)">
                        <path d="M41.0226801,33.0586152 C40.7708114,31.8074305 39.9607959,30.6895661 38.7981703,29.9900936 C36.646186,28.6958514 34.423688,27.4590017 32.2755208,26.2631614 L30.7985495,25.4406603 C28.9326951,24.3986714 27.6491594,24.5914845 26.8996093,24.9381333 C26.1863218,25.2683677 25.2513829,26.0662369 24.8403193,27.984076 C24.8342743,28.0127922 24.8302447,28.0476592 24.8262145,28.0825304 C24.6952405,28.5789034 24.3365799,28.7799026 24.1310326,28.8558307 C23.6575177,29.0301763 23.0953524,28.9153129 22.6359557,28.5481593 C19.0473378,25.6683551 15.9420511,22.5238004 13.141619,18.9285083 C12.7849701,18.4711076 12.6721327,17.9111462 12.8434083,17.4311613 C12.9219896,17.2055353 13.1375904,16.8117125 13.7360493,16.6824878 L13.7380641,16.6824878 C13.7662737,16.6783853 13.7964971,16.6742833 13.8247078,16.6681298 C15.7348718,16.2373931 16.4945322,15.2405147 16.796756,14.4775063 C17.1372853,13.6201391 17.2501227,12.1535624 15.8658406,10.0368191 C14.8241252,8.44926165 13.9536649,6.71604418 13.1114204,5.04027156 C12.7285777,4.2772631 12.3457247,3.5163025 11.9467831,2.7635333 C11.1548834,1.27238237 10.1010977,0.343182894 8.89612262,0.0785899816 C7.80602255,-0.163445059 6.65546741,0.156534359 5.5634072,0.997497695 C4.48135406,1.83643418 3.3308505,2.76148545 2.25080909,3.8239528 C-0.080477164,6.13555705 -0.612450946,9.05637085 0.709359213,12.2747532 C6.32724583,25.9475749 16.0026383,35.7252781 29.46679,41.3395416 C30.5226391,41.7805333 31.5482606,42 32.5295209,42 C34.3026808,42 35.9307899,41.2841446 37.3371959,39.8668214 C38.4857393,38.7181867 39.4891802,37.3952222 40.3495303,36.2362958 C41.0104096,35.3173881 41.2502182,34.1872366 41.0225316,33.0590805 L41.0226801,33.0586152 Z M38.9674136,35.1917938 C38.1513732,36.2912275 37.1942536,37.5546994 36.1263342,38.6212625 C34.423688,40.3380446 32.4591041,40.7010919 30.1179655,39.7206962 C17.0912363,34.2891639 7.72998326,24.827565 2.29521572,11.5994947 C1.23735493,9.02944108 1.61617927,6.89626246 3.44577086,5.08102591 C4.46133373,4.08214697 5.5655159,3.19605739 6.60320781,2.38789118 C7.15328716,1.96330856 7.6811859,1.74791134 8.17287349,1.74791134 C8.29377334,1.74791134 8.41265114,1.76021788 8.52952237,1.78688248 C9.22872771,1.94071813 9.88558354,2.56632625 10.4316394,3.59392762 C10.8245562,4.33440971 11.2013585,5.0830307 11.5781711,5.8357999 C12.4425963,7.55667775 13.337249,9.33710083 14.4333842,11.0067299 C15.1889696,12.1615081 15.4610175,13.1604395 15.1990798,13.8229457 C14.9451943,14.4649734 14.1774818,14.7808151 13.5428066,14.9367144 C13.4219067,14.9449189 13.3392968,14.9756861 13.3272058,14.9818391 C12.3318118,15.1951569 11.5661162,15.8699765 11.2236062,16.8360373 C10.8508377,17.8903133 11.0624098,19.0799574 11.7938544,20.0153005 C14.6792951,23.7176059 17.8770182,26.9585671 21.5724126,29.9221758 C22.503328,30.6667536 23.6780239,30.8800452 24.7137041,30.5006151 C25.6506547,30.1560247 26.3095738,29.3868464 26.521115,28.3879675 C26.52716,28.3572009 26.5311902,28.3202781 26.5352199,28.283359 C26.6843252,27.6269964 26.9905983,26.8188302 27.6111862,26.5317109 C28.3164267,26.2055827 29.2836049,26.5911931 29.9686765,26.9747557 L31.4456479,27.7993047 C33.5814868,28.9889489 35.7919144,30.2196551 37.9198096,31.4995623 C38.6653363,31.9487611 39.1791529,32.6461491 39.3343141,33.4132532 C39.4672998,34.0490849 39.3322992,34.684969 38.9675911,35.1915759 L38.9674136,35.1917938 Z" id="Shape"></path>
                    </g>
                </g>
            </g>
        </g>
    </g>
</svg>