<?xml version="1.0" encoding="UTF-8"?>
<svg width="22px" height="13px" viewBox="0 0 22 13" version="1.1" xmlns="http://www.w3.org/2000/svg" xmlns:xlink="http://www.w3.org/1999/xlink">
    <title>np_view_1256464_000000</title>
    <g id="Designs-V2" stroke="none" stroke-width="1" fill="none" fill-rule="evenodd">
        <g id="Collection" transform="translate(-1179.000000, -535.000000)" fill="#29245F" fill-rule="nonzero">
            <g id="Group-6" transform="translate(1173.000000, 525.000000)">
                <g id="np_view_1256464_000000" transform="translate(6.000000, 10.000000)">
                    <path d="M10.5344828,0.185586207 C8.96551724,0.185586207 4.86356897,0.698660345 0.542862069,5.44408621 C-0.000851724138,6.04208621 -0.000851724138,6.95526897 0.542862069,7.55326897 C4.86356897,12.3029759 8.96551724,12.8144586 10.5344828,12.8144586 C12.1034483,12.8144586 16.2053966,12.3013845 20.5261034,7.55595862 C21.0698172,6.95795862 21.0698172,6.04477586 20.5261034,5.44677586 C16.2053966,0.699534483 12.1034483,0.185586207 10.5344828,0.185586207 Z M10.5344828,11.0204138 C6.61475862,11.0213103 3.16953448,7.7397069 2.01724138,6.5 C3.17820862,5.26024828 6.62081034,1.97868966 10.5344828,1.97868966 C14.4481552,1.97868966 17.899431,5.2602931 19.0517241,6.5 C17.8995207,7.74152241 14.4542069,11.0213103 10.5344828,11.0213103 L10.5344828,11.0204138 Z" id="Shape"></path>
                    <path d="M10.5344828,2.34896552 C9.43656552,2.36384962 8.39028966,2.81299828 7.62248276,3.59748103 C6.85550517,4.38196379 6.43000172,5.43872931 6.43963966,6.53660172 C6.44927064,7.63451897 6.89403448,8.68341724 7.67502069,9.45398103 C8.4560069,10.2253293 9.51102414,10.6552259 10.6089862,10.6508661 C11.7069034,10.6455796 12.75755,10.2060534 13.5324172,9.42858621 C14.3063879,8.65022241 14.7415293,7.59782759 14.7415293,6.5 C14.7336495,5.39157069 14.2853638,4.33216034 13.4965103,3.5537069 C12.7076569,2.7753431 11.6430017,2.34197241 10.5345276,2.34896552 L10.5344828,2.34896552 Z M10.5344828,8.84896552 C9.5853931,8.82620207 8.74225345,8.2369569 8.39553448,7.35266552 C8.04881552,6.46924828 8.26595586,5.46412414 8.94624138,4.80130345 C9.62654483,4.13940172 10.6377879,3.95027414 11.5115,4.32063966 C12.3852793,4.6918569 12.9517655,5.55077586 12.9482851,6.49986552 C12.9307582,7.81667586 11.8512259,8.8716931 10.5343034,8.85779655 L10.5344828,8.84896552 Z" id="Shape"></path>
                </g>
            </g>
        </g>
    </g>
</svg>