<?xml version="1.0" encoding="UTF-8"?>
<svg width="41px" height="41px" viewBox="0 0 41 41" version="1.1" xmlns="http://www.w3.org/2000/svg" xmlns:xlink="http://www.w3.org/1999/xlink">
    <title>np_customer-service_3849927_000000</title>
    <g id="Page-1" stroke="none" stroke-width="1" fill="none" fill-rule="evenodd">
        <g id="np_customer-service_3849927_000000" transform="translate(-0.000000, 0.000000)" fill="#EF9B35" fill-rule="nonzero">
            <path d="M38.8420984,17.4568138 C38.4965009,13.7879644 36.2732875,0 20.5000038,0 C4.72671245,0 2.50370407,13.788396 2.15790157,17.4568138 C0.864028366,17.9077811 -0.00209631127,19.130044 3.81071946e-06,20.4997665 L3.81071946e-06,29.1313379 C3.81071946e-06,30.918343 1.44984262,32.3681772 3.23684853,32.3681772 L5.39474247,32.3681772 C7.18174838,32.3681772 8.63158336,30.918343 8.63158336,29.1313379 L8.63158336,20.4997665 C8.63158336,18.7127614 7.18174838,17.2629272 5.39474247,17.2629272 L4.3157955,17.2629272 C4.64032117,13.6383145 6.71181303,2.15767708 20.4579211,2.15767708 C34.202087,2.15767708 36.3173625,13.6382066 36.6842045,17.2629272 L35.6052575,17.2629272 C33.8182516,17.2629272 32.3684166,18.7127614 32.3684166,20.4997665 L32.3684166,29.1313379 C32.3684166,30.918343 33.8182516,32.3681772 35.6052575,32.3681772 L36.6842045,32.3681772 L36.6842045,33.4471237 C36.6842045,35.2341287 35.2343695,36.683963 33.4473636,36.683963 L23.5431699,36.683963 C23.0163417,35.1983077 21.496947,34.3069361 19.9438568,34.5724109 C18.3907666,34.8400381 17.2549051,36.1866226 17.2549051,37.7629094 C17.2549051,39.3391962 18.3907666,40.6857753 19.9438568,40.953408 C21.496947,41.2189313 23.0163201,40.3275111 23.5431699,38.8418558 L33.4473636,38.8418558 C34.8782091,38.8418558 36.2500902,38.2728734 37.2616029,37.2613612 C38.2731157,36.2498489 38.8420984,34.8779685 38.8420984,33.4471237 L38.8420984,32.1742906 C40.1359716,31.7233233 41.0020963,30.5010604 41.0000038,29.1313379 L41.0000038,20.4997665 C41.0020995,19.12999 40.1359716,17.9077595 38.8420984,17.4568138 Z M5.39474247,19.42082 C5.68133775,19.42082 5.95530936,19.5346165 6.15761192,19.736919 C6.35991447,19.9392214 6.47371101,20.2131713 6.47371101,20.499788 L6.47371101,29.1313595 C6.47371101,29.4179547 6.35991447,29.6919261 6.15761192,29.8942286 C5.95530936,30.0965311 5.68135933,30.2103275 5.39474247,30.2103275 L3.23684853,30.2103275 C2.6404606,30.2103275 2.15790157,29.7277526 2.15790157,29.1313811 L2.15790157,20.4998096 C2.15790157,19.903422 2.64047678,19.42082 3.23684853,19.42082 L5.39474247,19.42082 Z M20.5,38.8418558 C20.0637871,38.8418558 19.6696964,38.5784419 19.5032148,38.1759301 C19.3367333,37.7734184 19.429458,37.3077019 19.7371251,37.0000403 C20.0447923,36.6923734 20.5105143,36.5996487 20.9130155,36.7661301 C21.3155167,36.9326116 21.5789416,37.3266968 21.5789416,37.7629148 C21.5789416,38.04951 21.465145,38.3234814 21.2628425,38.5257839 C21.0605399,38.7280863 20.7865899,38.8418828 20.499973,38.8418828 L20.5,38.8418558 Z M38.8420984,29.1313379 C38.8420984,29.4179331 38.7283019,29.6919046 38.5259993,29.894207 C38.3236968,30.0965095 38.0497467,30.210306 37.7631299,30.210306 L35.6052359,30.210306 C35.008848,30.210306 34.526289,29.727731 34.526289,29.1313595 L34.526289,20.499788 C34.526289,19.9034004 35.0088642,19.4208416 35.6052359,19.4208416 L37.7631299,19.4208416 C38.0497252,19.4208416 38.3236968,19.5346381 38.5259993,19.7369405 C38.7283019,19.939243 38.8420984,20.2131929 38.8420984,20.4998096 L38.8420984,29.1313379 Z" id="Shape"></path>
        </g>
    </g>
</svg>