<?xml version="1.0" encoding="UTF-8"?>
<svg width="25px" height="15px" viewBox="0 0 25 15" version="1.1" xmlns="http://www.w3.org/2000/svg" xmlns:xlink="http://www.w3.org/1999/xlink">
    <title>np_delivery_357446_000000</title>
    <g id="Designs-V2" stroke="none" stroke-width="1" fill="none" fill-rule="evenodd">
        <g id="Cart" transform="translate(-1047.000000, -594.000000)" fill-rule="nonzero">
            <g id="Group-2" transform="translate(1002.000000, 593.000000)">
                <g id="np_delivery_357446_000000" transform="translate(45.000000, 1.000000)">
                    <path d="M8.8535,11.667 C8.565425,11.667 8.333,11.8994225 8.333,12.1875 C8.333,12.4746 8.5654225,12.708975 8.8535,12.708975 C9.141575,12.7079982 9.374975,12.4746 9.374975,12.186525 C9.374975,11.899425 9.1415775,11.667 8.8535,11.667 L8.8535,11.667 Z" id="Path" fill="#000000"></path>
                    <path d="M25,7.499 L20.81825,3.336 L17.73825,3.33307025 L17.707,3.33307025 L17.707,1.25007025 C17.707,0.67487025 17.241175,0.20807025 16.665975,0.20807025 L5.208975,0.20807025 C4.633775,0.20807025 4.16795,0.67487025 4.16795,1.25007025 L0.52145,1.25007025 C0.233375,1.25007025 -2.5e-05,1.48346775 -2.5e-05,1.77057025 C-2.5e-05,2.05864525 0.2333725,2.29107025 0.52145,2.29107025 L4.16795,2.29107025 L4.1669735,4.37504525 L1.5624735,4.37504525 C1.2743985,4.37504525 1.0419735,4.60746775 1.0419735,4.89554525 C1.0419735,5.18362025 1.274396,5.41702025 1.5624735,5.41702025 L4.1669735,5.41702025 L4.1669735,7.50099525 L2.6044735,7.50099525 C2.3163985,7.50099525 2.0829985,7.73341775 2.0829985,8.02149525 C2.0829985,8.30859525 2.316396,8.54297025 2.6044735,8.54297025 L4.1669735,8.54297025 L4.1669735,10.6259703 L3.6464735,10.6240173 C3.3583985,10.6240173 3.1249985,10.8574148 3.1249985,11.1454923 C3.1249985,11.4335673 3.358396,11.6669673 3.6464735,11.6669673 L4.1679485,11.6669673 C4.1679485,12.2421672 4.6337735,12.7079923 5.2089735,12.7079923 L6.3027235,12.7079923 C6.5439335,13.8964673 7.5947235,14.7919673 8.8534735,14.7919673 C10.1142235,14.7919673 11.1640235,13.8974422 11.4052235,12.7079923 L18.2802235,12.7079923 C18.5214335,13.8964673 19.5722235,14.7919673 20.8309735,14.7919673 C22.0917235,14.7919673 23.1415235,13.8974422 23.3827235,12.7079923 L24.9872235,12.7079923 L25,7.499 Z M8.8535,13.749 C7.992175,13.749 7.291975,13.0488 7.291975,12.1865 C7.291975,11.325175 7.992175,10.624 8.8535,10.624 C9.7158,10.624 10.416,11.325175 10.416,12.1865 C10.416,13.0488 9.7158,13.749 8.8535,13.749 Z M16.665,11.666975 L11.40625,11.666975 C11.16504,10.4785 10.11425,9.583 8.8545,9.583 C7.594725,9.583 6.54395,10.477525 6.30375,11.666975 L5.21,11.666975 L5.2109765,1.250975 L16.6669765,1.250975 L16.665,11.666975 Z M20.833,13.749 C19.971675,13.749 19.2705,13.0488 19.2705,12.1865 C19.2705,11.325175 19.971675,10.624 20.833,10.624 C21.6953,10.624 22.3955,11.325175 22.3955,12.1865 C22.3955,13.0488 21.6953,13.749 20.833,13.749 Z M23.95025,11.666975 L23.384825,11.666975 C23.143615,10.4785 22.092825,9.583 20.833075,9.583 C19.5733,9.583 18.522525,10.477525 18.282325,11.666975 L17.707125,11.666975 L17.7081015,4.375975 L17.737399,4.375975 L20.388649,4.37792825 L23.957899,7.93267825 L23.95025,11.666975 Z" id="Shape" fill="#29245F"></path>
                    <path d="M20.833,11.667 C20.544925,11.667 20.3125,11.8994225 20.3125,12.1875 C20.3125,12.4746 20.5449225,12.708975 20.833,12.708975 C21.1201,12.708975 21.354475,12.4755775 21.354475,12.1875 C21.3534982,11.899425 21.1201,11.667 20.833,11.667 Z" id="Path" fill="#000000"></path>
                </g>
            </g>
        </g>
    </g>
</svg>